<?xml version="1.0" encoding="UTF-8"?>
<svg width="197px" height="175px" viewBox="0 0 197 175" xmlns="http://www.w3.org/2000/svg" xmlns:xlink="http://www.w3.org/1999/xlink" version="1.1">
 <!-- Generated by Pixelmator Pro 1.5.1 -->
 <g id="Page-1">
  <g id="Home">
   <g id="Hero">
    <g id="Group-5">
     <g id="Group">
      <path id="Fill-1" d="M178.13 14.918 L172.438 27.805 179.342 37.344 C181.736 36.268 184.636 36.944 186.281 39.135 188.193 41.679 187.686 45.296 185.15 47.213 182.614 49.13 179.008 48.621 177.097 46.077 175.462 43.901 175.601 40.943 177.262 38.932 L169.421 28.099 169.438 28.087 169.431 28.083 176.066 13.061 C174.319 11.568 172.495 10.186 170.602 8.929 L157.265 37.442 157.257 37.439 157.259 37.46 151.155 37.905 C150.918 39.307 150.173 40.625 148.952 41.547 146.416 43.465 142.81 42.956 140.899 40.411 138.987 37.867 139.494 34.251 142.03 32.334 144.566 30.417 148.172 30.925 150.083 33.47 150.502 34.027 150.797 34.636 150.988 35.267 L155.524 34.937 168.349 7.517 C165.36 5.731 162.227 4.24 158.996 3.069 L150.187 21.902 150.18 21.898 150.182 21.92 138.829 22.746 C138.615 24.192 137.859 25.557 136.604 26.505 134.068 28.422 130.462 27.914 128.551 25.37 126.64 22.826 127.146 19.209 129.682 17.292 132.219 15.375 135.824 15.883 137.735 18.427 138.129 18.951 138.414 19.522 138.606 20.112 L148.446 19.396 156.476 2.227 C136.676 -3.838 113.779 2.022 98.271 25.57 65.464 -24.056 -0.056 5.103 0 59.216 0.034 92.251 26.724 116.706 50.041 135.599 L56.458 125.63 51.907 116.671 C49.379 117.285 46.669 116.114 45.436 113.686 43.994 110.848 45.119 107.375 47.949 105.929 50.778 104.482 54.241 105.611 55.683 108.45 56.925 110.895 56.259 113.807 54.243 115.493 L59.484 125.811 59.465 125.82 59.472 125.825 52.106 137.265 C53.907 138.714 55.683 140.129 57.418 141.512 58.389 142.286 59.324 143.03 60.242 143.759 L73.209 123.618 71.058 119.384 C68.53 119.995 65.823 118.825 64.59 116.399 63.149 113.56 64.273 110.087 67.103 108.641 69.932 107.195 73.395 108.323 74.838 111.162 76.08 113.608 75.413 116.523 73.395 118.208 L76.234 123.799 76.215 123.808 76.222 123.813 62.321 145.405 C64.218 146.904 65.998 148.304 67.677 149.618 L74.68 139.241 74.687 139.245 74.688 139.224 88.074 140.353 C88.599 139.239 89.476 138.283 90.655 137.68 93.484 136.234 96.947 137.363 98.39 140.202 99.831 143.04 98.707 146.514 95.877 147.96 93.047 149.406 89.584 148.277 88.142 145.439 87.738 144.642 87.542 143.796 87.523 142.959 L76.01 141.988 69.762 151.248 C85.695 163.67 91.708 167.82 98.427 174.561 106.597 166.287 113.434 161.432 139.366 141.418 164.315 122.12 196.647 95.187 196.612 58.597 L196.612 58.589 C196.592 40.564 189.188 25.333 178.13 14.918" fill="#7bcdd2" fill-opacity="1" stroke="none"/>
      <path id="Fill-3" d="M73.061 111.996 C72.099 110.103 69.808 109.342 67.943 110.295 66.078 111.248 65.346 113.555 66.307 115.447 67.268 117.34 69.559 118.101 71.424 117.148 73.29 116.194 74.022 113.888 73.061 111.996" fill="#7bcdd2" fill-opacity="1" stroke="none"/>
      <path id="Fill-5" d="M94.977 146.188 C96.842 145.234 97.574 142.928 96.613 141.035 95.651 139.143 93.361 138.381 91.495 139.334 89.63 140.287 88.898 142.594 89.859 144.487 90.821 146.379 93.111 147.14 94.977 146.188" fill="#7bcdd2" fill-opacity="1" stroke="none"/>
      <path id="Fill-7" d="M130.796 18.775 C129.124 20.038 128.802 22.438 130.076 24.133 131.351 25.83 133.739 26.18 135.411 24.917 137.082 23.654 137.404 21.254 136.13 19.558 134.856 17.862 132.468 17.511 130.796 18.775" fill="#7bcdd2" fill-opacity="1" stroke="none"/>
      <path id="Fill-9" d="M183.957 45.624 C185.628 44.361 185.95 41.961 184.676 40.266 183.401 38.569 181.014 38.219 179.342 39.482 177.671 40.745 177.348 43.145 178.623 44.841 179.897 46.537 182.285 46.888 183.957 45.624" fill="#7bcdd2" fill-opacity="1" stroke="none"/>
      <path id="Fill-11" d="M143.144 33.816 C141.473 35.08 141.15 37.479 142.425 39.175 143.699 40.871 146.087 41.222 147.759 39.959 149.43 38.695 149.752 36.296 148.478 34.6 147.204 32.903 144.815 32.553 143.144 33.816" fill="#7bcdd2" fill-opacity="1" stroke="none"/>
      <path id="Fill-13" d="M53.906 109.283 C52.945 107.391 50.654 106.629 48.789 107.583 46.924 108.536 46.191 110.843 47.153 112.735 48.114 114.627 50.405 115.389 52.27 114.436 54.135 113.482 54.867 111.176 53.906 109.283" fill="#7bcdd2" fill-opacity="1" stroke="none"/>
     </g>
    </g>
   </g>
  </g>
 </g>
</svg>
